<?xml version="1.0" standalone="no"?>
<!DOCTYPE svg PUBLIC "-//W3C//DTD SVG 20010904//EN"
 "http://www.w3.org/TR/2001/REC-SVG-20010904/DTD/svg10.dtd">
<svg version="1.0" xmlns="http://www.w3.org/2000/svg"
 width="402.000000pt" height="402.000000pt" viewBox="0 0 402.000000 402.000000"
 preserveAspectRatio="xMidYMid meet">
<metadata>
Created by potrace 1.11, written by Peter Selinger 2001-2013
</metadata>
<g transform="translate(0.000000,402.000000) scale(0.100000,-0.100000)"
fill="#000000" stroke="none">
<path d="M1656 3750 c-86 -148 -156 -274 -156 -279 0 -10 100 -71 117 -71 5 0
67 99 138 221 l127 220 17 -28 c10 -15 82 -139 160 -275 79 -137 147 -248 150
-248 3 0 78 124 165 275 135 232 161 271 171 257 6 -9 78 -133 160 -274 81
-142 150 -258 154 -258 3 0 78 124 165 274 136 233 162 272 171 258 7 -9 65
-108 130 -219 64 -112 121 -203 126 -203 21 0 120 63 117 75 -2 6 -73 132
-158 278 l-155 267 -70 0 -70 0 -124 -215 c-69 -118 -128 -215 -132 -215 -3 0
-62 97 -130 215 l-124 215 -70 0 -70 0 -125 -215 c-68 -118 -127 -215 -131
-215 -4 0 -63 97 -131 215 l-123 214 -71 1 -71 0 -157 -270z"/>
<path d="M0 3061 l0 -90 41 -33 c107 -85 217 -260 261 -414 29 -104 32 -304 4
-404 -42 -154 -111 -272 -222 -383 -37 -37 -71 -67 -76 -67 -4 0 -8 -40 -8
-90 0 -49 4 -90 8 -90 12 0 87 54 154 112 186 160 318 452 318 704 0 326 -179
655 -449 826 l-31 20 0 -91z"/>
<path d="M1975 2604 c-33 -8 -98 -33 -145 -56 -68 -34 -102 -59 -170 -128 -94
-94 -142 -173 -181 -300 -30 -96 -32 -261 -5 -360 66 -242 254 -430 496 -496
98 -27 264 -25 358 4 l72 23 0 80 c0 73 -2 80 -17 74 -135 -56 -289 -66 -405
-27 -384 132 -501 606 -219 892 107 109 231 161 386 161 88 0 168 -17 228 -47
l27 -15 0 85 0 84 -52 17 c-75 24 -293 29 -373 9z"/>
<path d="M3275 800 c-22 -28 -40 -54 -40 -59 0 -4 76 -71 169 -147 151 -124
166 -139 145 -145 -13 -4 -211 -40 -439 -80 -228 -39 -418 -74 -422 -78 -4 -3
39 -70 94 -149 l101 -142 88 0 c49 0 89 2 89 5 0 3 -27 43 -61 91 -34 47 -59
87 -57 89 1 2 212 40 468 85 256 45 475 84 487 88 19 6 -19 40 -268 245 -159
131 -295 240 -302 242 -6 3 -30 -17 -52 -45z"/>
</g>
</svg>
