<?xml version="1.0" standalone="no"?>
<!DOCTYPE svg PUBLIC "-//W3C//DTD SVG 20010904//EN"
 "http://www.w3.org/TR/2001/REC-SVG-20010904/DTD/svg10.dtd">
<svg version="1.0" xmlns="http://www.w3.org/2000/svg"
 width="536.000000pt" height="536.000000pt" viewBox="0 0 536.000000 536.000000"
 preserveAspectRatio="xMidYMid meet">
<metadata>
Created by potrace 1.11, written by Peter Selinger 2001-2013
</metadata>
<g transform="translate(0.000000,536.000000) scale(0.100000,-0.100000)"
fill="#000000" stroke="none">
<path d="M3877 3023 c-766 -767 -777 -777 -743 -708 76 156 101 279 93 465 -4
95 -11 146 -32 215 -94 317 -345 563 -663 646 -97 26 -273 35 -371 20 -308
-48 -565 -238 -701 -516 -74 -151 -95 -240 -94 -410 0 -97 5 -161 17 -207 82
-330 306 -577 618 -683 260 -89 569 -51 796 97 86 56 196 158 250 231 l35 47
789 0 789 0 0 790 c0 435 -1 790 -3 790 -1 0 -352 -350 -780 -777z"/>
</g>
</svg>
