<svg width="800" height="800" viewBox="0 0 800 800" xmlns="http://www.w3.org/2000/svg" xmlns:xlink="http://www.w3.org/1999/xlink"><defs><path id="a" d="M0 0h800v800H0z"/></defs><g fill="none" fill-rule="evenodd"><mask id="b" fill="#fff"><use xlink:href="#a"/></mask><path d="M332.753 395.306c0 11.597-9.402 21-21 21-11.596 0-20.998-9.403-20.998-21s9.402-21 21-21c11.596 0 20.998 9.403 20.998 21zM573.998 54c0 11.596-9.402 20.998-21 20.998-11.596 0-20.998-9.402-20.998-21C532 42.403 541.402 33 553 33c11.596 0 20.998 9.402 20.998 21zM727.828 546.306c0 11.597-9.402 21-21 21-11.596 0-20.998-9.403-20.998-21s9.402-21 21-21c11.596 0 20.998 9.403 20.998 21zM184.113 340.306c0 11.597-9.402 21-21 21-11.596 0-20.998-9.403-20.998-21s9.402-21 21-21c11.596 0 20.998 9.403 20.998 21zM108.113 442.82c0 11.596-9.402 20.998-21 20.998-11.596 0-20.998-9.402-20.998-21 0-11.596 9.402-20.998 21-20.998 11.596 0 20.998 9.402 20.998 21zM611.753 295.306c0 11.597-9.402 21-21 21-11.596 0-20.998-9.403-20.998-21s9.402-21 21-21c11.596 0 20.998 9.403 20.998 21zM137.857 627.018c0 11.597-9.402 21-21 21-11.596 0-20.998-9.403-20.998-21s9.4-21 20.998-21c11.597 0 21 9.403 21 21zM397.753 237.306c0 11.597-9.402 21-21 21-11.596 0-20.998-9.403-20.998-21s9.402-21 21-21c11.596 0 20.998 9.403 20.998 21zM151.113 171.306c0 11.597-9.402 21-21 21-11.596 0-20.998-9.403-20.998-21s9.402-21 21-21c11.596 0 20.998 9.403 20.998 21zM538.115 744.503c0 11.597-9.402 21-21 21-11.596 0-20.998-9.403-20.998-21s9.402-21 21-21c11.596 0 20.998 9.403 20.998 21zM511.753 487.306c0 11.597-9.402 21-21 21-11.596 0-20.998-9.403-20.998-21s9.402-21 21-21c11.596 0 20.998 9.403 20.998 21zM205.998-3c0 11.596-9.402 20.998-21 20.998-11.596 0-20.998-9.402-20.998-21C164-14.597 173.402-24 185-24c11.596 0 20.998 9.402 20.998 21zM205.998 797c0 11.596-9.402 20.998-21 20.998-11.596 0-20.998-9.402-20.998-21 0-11.596 9.402-20.998 21-20.998 11.596 0 20.998 9.402 20.998 21zM316.857 713.018c0 11.597-9.402 21-21 21-11.596 0-20.998-9.403-20.998-21s9.4-21 20.998-21c11.597 0 21 9.403 21 21zM439.113 748.164c0 11.597-9.402 21-21 21-11.596 0-20.998-9.403-20.998-21s9.402-21 21-21c11.596 0 20.998 9.403 20.998 21zM367.07 177.965c0 9.752-7.905 17.658-17.657 17.658-9.752 0-17.658-7.906-17.658-17.658 0-9.752 7.906-17.658 17.658-17.658 9.752 0 17.658 7.906 17.658 17.658zM120.43 112.965c0 9.752-7.905 17.658-17.657 17.658-9.752 0-17.658-7.906-17.658-17.658 0-9.752 7.906-17.658 17.658-17.658 9.752 0 17.658 7.906 17.658 17.658zM481.07 428.965c0 9.752-7.905 17.658-17.657 17.658-9.752 0-17.658-7.906-17.658-17.658 0-9.752 7.906-17.658 17.658-17.658 9.752 0 17.658 7.906 17.658 17.658zM760.07 322.965c0 9.752-7.905 17.658-17.657 17.658-9.752 0-17.658-7.906-17.658-17.658 0-9.752 7.906-17.658 17.658-17.658 9.752 0 17.658 7.906 17.658 17.658zM286.175 654.677c0 9.752-7.906 17.658-17.658 17.658-9.752 0-17.658-7.906-17.658-17.658 0-9.752 7.905-17.658 17.657-17.658 9.752 0 17.658 7.905 17.658 17.657zM466.43 621.677c0 9.752-7.905 17.658-17.657 17.658-9.752 0-17.658-7.906-17.658-17.658 0-9.752 7.906-17.658 17.658-17.658 9.752 0 17.658 7.905 17.658 17.657zM546.07 264.965c0 9.752-7.905 17.658-17.657 17.658-9.752 0-17.658-7.906-17.658-17.658 0-9.752 7.906-17.658 17.658-17.658 9.752 0 17.658 7.906 17.658 17.658zM72.175 596.677c0 9.752-7.906 17.658-17.658 17.658-9.752 0-17.658-7.906-17.658-17.658 0-9.752 7.905-17.658 17.657-17.658 9.752 0 17.658 7.905 17.658 17.657zM299.43 198.965c0 9.752-7.905 17.658-17.657 17.658-9.752 0-17.658-7.906-17.658-17.658 0-9.752 7.906-17.658 17.658-17.658 9.752 0 17.658 7.906 17.658 17.658zM674.43 767.02c0 9.75-7.905 17.657-17.657 17.657-9.752 0-17.658-7.906-17.658-17.658 0-9.753 7.906-17.66 17.658-17.66 9.752 0 17.658 7.907 17.658 17.66zM660.07 514.965c0 9.752-7.905 17.658-17.657 17.658-9.752 0-17.658-7.906-17.658-17.658 0-9.752 7.906-17.658 17.658-17.658 9.752 0 17.658 7.906 17.658 17.658zM722.146 72.447c0 9.752-7.906 17.658-17.658 17.658-9.752 0-17.658-7.906-17.658-17.658 0-9.752 7.906-17.658 17.658-17.658 9.752 0 17.658 7.905 17.658 17.657zM35.316 781.658c0 9.752-7.906 17.658-17.658 17.658C7.906 799.316 0 791.41 0 781.658 0 771.906 7.906 764 17.658 764c9.752 0 17.658 7.906 17.658 17.658zM835.316 781.658c0 9.752-7.906 17.658-17.658 17.658-9.752 0-17.658-7.906-17.658-17.658 0-9.752 7.906-17.658 17.658-17.658 9.752 0 17.658 7.906 17.658 17.658zM35.316-18.342c0 9.752-7.906 17.658-17.658 17.658C7.906-.684 0-8.59 0-18.342 0-28.094 7.906-36 17.658-36c9.752 0 17.658 7.906 17.658 17.658zM382.57 503.715c0 6.852-5.555 12.408-12.407 12.408-6.853 0-12.408-5.556-12.408-12.408 0-6.853 5.555-12.408 12.408-12.408 6.852 0 12.408 5.555 12.408 12.408zM47.62 132.408c0 6.853-5.555 12.408-12.408 12.408-6.852 0-12.408-5.555-12.408-12.408 0-6.852 5.556-12.408 12.408-12.408 6.853 0 12.408 5.556 12.408 12.408zM457.57 349.715c0 6.852-5.555 12.408-12.407 12.408-6.853 0-12.408-5.556-12.408-12.408 0-6.853 5.555-12.408 12.408-12.408 6.852 0 12.408 5.555 12.408 12.408zM426.816 3.408c0 6.853-5.555 12.408-12.408 12.408-6.852 0-12.408-5.555-12.408-12.408C402-3.444 407.556-9 414.408-9c6.853 0 12.408 5.556 12.408 12.408zM426.816 803.408c0 6.853-5.555 12.408-12.408 12.408-6.852 0-12.408-5.555-12.408-12.408 0-6.852 5.556-12.408 12.408-12.408 6.853 0 12.408 5.556 12.408 12.408zM736.57 243.715c0 6.852-5.555 12.408-12.407 12.408-6.853 0-12.408-5.556-12.408-12.408 0-6.853 5.555-12.408 12.408-12.408 6.852 0 12.408 5.555 12.408 12.408zM262.675 575.427c0 6.852-5.555 12.408-12.408 12.408s-12.408-5.556-12.408-12.408c0-6.853 5.554-12.408 12.407-12.408s12.408 5.554 12.408 12.407zM821.816 654.408c0 6.853-5.555 12.408-12.408 12.408-6.852 0-12.408-5.555-12.408-12.408 0-6.852 5.556-12.408 12.408-12.408 6.853 0 12.408 5.556 12.408 12.408zM21.816 654.408c0 6.853-5.555 12.408-12.408 12.408C2.556 666.816-3 661.26-3 654.408-3 647.556 2.556 642 9.408 642c6.853 0 12.408 5.556 12.408 12.408zM210.93 283.715c0 6.852-5.554 12.408-12.407 12.408-6.852 0-12.408-5.556-12.408-12.408 0-6.853 5.556-12.408 12.408-12.408 6.853 0 12.408 5.555 12.408 12.408zM95.93 326.898c0 6.852-5.554 12.408-12.407 12.408-6.852 0-12.408-5.556-12.408-12.408 0-6.853 5.556-12.408 12.408-12.408 6.853 0 12.408 5.555 12.408 12.408zM571.57 599.715c0 6.852-5.555 12.408-12.407 12.408-6.853 0-12.408-5.556-12.408-12.408 0-6.853 5.555-12.408 12.408-12.408 6.852 0 12.408 5.555 12.408 12.408zM406.908 458l-10.866-18.704L385.162 458l-10.796-18.704L363.486 458l-10.865-18.704L341.756 458" stroke="#000539" stroke-width="5" mask="url(#b)"/><path stroke="#000539" stroke-width="5" mask="url(#b)" transform="rotate(72 480.576 36.35)" d="M513.153 45.703L502.287 27l-10.88 18.703L480.61 27l-10.88 18.703L458.867 27 448 45.703"/><path stroke="#000539" stroke-width="5" mask="url(#b)" d="M706.268 693.835l-10.866-18.703-10.88 18.703-10.796-18.703-10.88 18.703-10.865-18.703-10.865 18.703M785.153 37.703L774.287 19l-10.88 18.703L752.61 19l-10.88 18.703L730.867 19 720 37.703M171.692 63.13l-10.866-18.704-10.88 18.703-10.796-18.704-10.88 18.703-10.865-18.704L106.54 63.13M685.908 352l-10.866-18.704L664.162 352l-10.796-18.704L642.486 352l-10.865-18.704L620.756 352M98.268 390l-10.866-18.704L76.522 390l-10.796-18.704L54.846 390 43.98 371.295 33.116 390M212.012 683.71l-10.866-18.702-10.88 18.703-10.796-18.702-10.88 18.703-10.865-18.702-10.866 18.703"/><path stroke="#000539" stroke-width="5" mask="url(#b)" transform="rotate(-20 439.93 284.576)" d="M472.506 293.927l-10.866-18.703-10.88 18.703-10.796-18.703-10.88 18.703-10.865-18.703-10.867 18.703"/><path stroke="#000539" stroke-width="5" mask="url(#b)" transform="rotate(-60 696.864 162.687)" d="M729.44 172.038l-10.866-18.703-10.88 18.703-10.796-18.703-10.88 18.703-10.865-18.703-10.866 18.703"/><path stroke="#000539" stroke-width="5" mask="url(#b)" transform="rotate(-60 99.007 785.907)" d="M131.584 795.258l-10.866-18.703-10.88 18.703-10.796-18.703-10.88 18.703-10.865-18.703-10.866 18.703"/><path stroke="#000539" stroke-width="5" mask="url(#b)" transform="rotate(-60 99.007 -14.092)" d="M131.584-4.74l-10.866-18.704-10.88 18.703L99.04-23.445 88.162-4.74 77.297-23.445 66.43-4.74"/><path stroke="#000539" stroke-width="5" mask="url(#b)" transform="rotate(-60 222.7 494.4)" d="M255.277 503.75l-10.866-18.703-10.88 18.703-10.795-18.703-10.88 18.703-10.865-18.703-10.866 18.703"/><path stroke="#000539" stroke-width="5" mask="url(#b)" transform="rotate(-60 769.406 493.888)" d="M801.983 503.24l-10.866-18.704-10.88 18.703-10.796-18.704-10.88 18.703-10.864-18.704-10.866 18.703"/><path stroke="#000539" stroke-width="5" mask="url(#b)" transform="rotate(-60 281.387 46.888)" d="M313.963 56.24l-10.866-18.704-10.88 18.703-10.796-18.704-10.88 18.703-10.864-18.704L248.81 56.24"/><path stroke="#000539" stroke-width="5" mask="url(#b)" transform="rotate(-20 193.29 218.576)" d="M225.866 227.927L215 209.224l-10.88 18.703-10.796-18.703-10.88 18.703-10.865-18.703-10.867 18.703"/><path stroke="#000539" stroke-width="5" mask="url(#b)" transform="rotate(-20 801.034 708.147)" d="M833.61 717.498l-10.865-18.703-10.88 18.703-10.796-18.703-10.88 18.703-10.866-18.703-10.866 18.703"/><path stroke="#000539" stroke-width="5" mask="url(#b)" transform="rotate(-20 1.03 708.147)" d="M33.607 717.498L22.74 698.795l-10.88 18.703-10.795-18.703-10.88 18.703-10.865-18.703-10.866 18.703"/><path stroke="#000539" stroke-width="5" mask="url(#b)" transform="rotate(-20 553.93 534.576)" d="M586.506 543.927l-10.866-18.703-10.88 18.703-10.796-18.703-10.88 18.703-10.865-18.703-10.867 18.703"/><path stroke="#000539" stroke-width="5" mask="url(#b)" transform="rotate(-20 574.115 784.93)" d="M606.692 794.28l-10.866-18.702-10.88 18.703-10.796-18.702-10.88 18.703-10.865-18.702-10.866 18.703"/><path stroke="#000539" stroke-width="5" mask="url(#b)" transform="rotate(-20 574.115 -15.07)" d="M606.692-5.72L595.826-24.42 584.946-5.72 574.15-24.42 563.27-5.72 552.405-24.42 541.54-5.72"/><path stroke="#000539" stroke-width="5" mask="url(#b)" transform="rotate(-20 616.005 99.058)" d="M648.58 108.41l-10.865-18.704-10.88 18.703-10.796-18.704-10.88 18.703-10.866-18.704-10.866 18.703"/><path d="M283.51 460.58c11.443 4.395 19.54 15.275 19.54 28.004 0 12.744-8.116 23.636-19.58 28.017" stroke="#000539" stroke-width="5" mask="url(#b)" transform="rotate(10 293.26 488.59)"/><path d="M15.756 452.274c11.442 4.394 19.54 15.274 19.54 28.003 0 12.744-8.117 23.637-19.58 28.017" stroke="#000539" stroke-width="5" mask="url(#b)" transform="rotate(10 25.505 480.284)"/><path d="M347.87 611.58c11.443 4.395 19.54 15.275 19.54 28.004 0 12.744-8.116 23.636-19.58 28.017" stroke="#000539" stroke-width="5" mask="url(#b)" transform="rotate(10 357.62 639.59)"/><path d="M336.756-10.726c11.442 4.394 19.54 15.274 19.54 28.003 0 12.744-8.117 23.637-19.58 28.017" stroke="#000539" stroke-width="5" mask="url(#b)" transform="rotate(10 346.505 17.284)"/><path d="M336.756 789.274c11.442 4.394 19.54 15.274 19.54 28.003 0 12.744-8.117 23.637-19.58 28.017" stroke="#000539" stroke-width="5" mask="url(#b)" transform="rotate(10 346.505 817.284)"/><path d="M200.852 39.274c11.443 4.394 19.54 15.274 19.54 28.003 0 12.744-8.117 23.637-19.58 28.017" stroke="#000539" stroke-width="5" mask="url(#b)" transform="rotate(10 210.602 67.284)"/><path d="M587.873 612.78c11.442 4.392 19.54 15.272 19.54 28 0 12.745-8.117 23.638-19.58 28.02" stroke="#000539" stroke-width="5" mask="url(#b)" transform="rotate(10 597.622 640.79)"/><path d="M561.51 354.58c11.443 4.395 19.54 15.275 19.54 28.004 0 12.744-8.116 23.636-19.58 28.017" stroke="#000539" stroke-width="5" mask="url(#b)" transform="rotate(10 571.26 382.59)"/><path d="M57.87 684.985c11.443 4.394 19.54 15.273 19.54 28.003 0 12.744-8.116 23.636-19.58 28.017" stroke="#000539" stroke-width="5" mask="url(#b)" transform="rotate(10 67.62 712.995)"/><path d="M337.51 276.047c11.442 4.393 19.54 15.273 19.54 28.002 0 12.743-8.118 23.636-19.58 28.016" stroke="#000539" stroke-width="5" mask="url(#b)" transform="rotate(140 347.26 304.057)"/><path d="M772.755 123.74c11.442 4.393 19.54 15.273 19.54 28.002 0 12.744-8.117 23.637-19.58 28.018" stroke="#000539" stroke-width="5" mask="url(#b)" transform="rotate(140 782.504 151.75)"/><path d="M-27.245 123.74c11.442 4.393 19.54 15.273 19.54 28.002 0 12.744-8.117 23.637-19.58 28.018" stroke="#000539" stroke-width="5" mask="url(#b)" transform="rotate(140 -17.496 151.75)"/><path d="M616.51 170.047c11.442 4.393 19.54 15.273 19.54 28.002 0 12.743-8.118 23.636-19.58 28.016" stroke="#000539" stroke-width="5" mask="url(#b)" transform="rotate(140 626.26 198.057)"/><path d="M713.502 404.047c11.442 4.393 19.54 15.273 19.54 28.002 0 12.743-8.117 23.636-19.58 28.016" stroke="#000539" stroke-width="5" mask="url(#b)" transform="rotate(140 723.25 432.057)"/><path d="M729.87 611.58c11.442 4.395 19.54 15.275 19.54 28.004 0 12.744-8.117 23.636-19.58 28.017" stroke="#000539" stroke-width="5" mask="url(#b)" transform="rotate(140 739.62 639.59)"/><path d="M142.613 501.76c11.443 4.392 19.54 15.272 19.54 28 0 12.745-8.116 23.638-19.58 28.018" stroke="#000539" stroke-width="5" mask="url(#b)" transform="rotate(140 152.363 529.768)"/><path d="M355.87 79.297c11.442 4.394 19.54 15.273 19.54 28.002 0 12.744-8.117 23.636-19.58 28.017" stroke="#000539" stroke-width="5" mask="url(#b)" transform="rotate(140 365.62 107.307)"/><path d="M90.87 210.047c11.442 4.393 19.54 15.273 19.54 28.002 0 12.743-8.117 23.636-19.58 28.016" stroke="#000539" stroke-width="5" mask="url(#b)" transform="rotate(140 100.62 238.057)"/><path d="M226.616 380.085c11.443 4.394 19.54 15.274 19.54 28.003 0 12.744-8.117 23.636-19.58 28.017" stroke="#000539" stroke-width="5" mask="url(#b)" transform="rotate(50 236.366 408.095)"/><path d="M451.51 526.047c11.442 4.393 19.54 15.273 19.54 28.002 0 12.743-8.118 23.636-19.58 28.016" stroke="#000539" stroke-width="5" mask="url(#b)" transform="rotate(140 461.26 554.057)"/><path d="M513.585 100.528c11.442 4.394 19.54 15.274 19.54 28.003 0 12.745-8.117 23.638-19.58 28.018" stroke="#000539" stroke-width="5" mask="url(#b)" transform="rotate(140 523.334 128.538)"/><path d="M395.916 365.614c7.73 2.968 13.2 10.32 13.2 18.92 0 8.61-5.482 15.968-13.227 18.927" stroke="#000539" stroke-width="5" mask="url(#b)" transform="rotate(50 402.503 384.538)"/><path d="M219.02 327.614c7.73 2.968 13.2 10.32 13.2 18.92 0 8.61-5.482 15.968-13.227 18.927" stroke="#000539" stroke-width="5" mask="url(#b)" transform="rotate(-160 225.607 346.538)"/><path d="M46.1 40.12c7.73 2.97 13.202 10.32 13.202 18.92 0 8.61-5.484 15.97-13.23 18.93" stroke="#000539" stroke-width="5" mask="url(#b)" transform="rotate(-160 52.688 59.045)"/><path d="M359.04 688.338c7.73 2.97 13.2 10.32 13.2 18.92 0 8.61-5.482 15.968-13.227 18.928" stroke="#000539" stroke-width="5" mask="url(#b)" transform="rotate(-160 365.627 707.262)"/><path d="M674.916 259.614c7.73 2.968 13.2 10.32 13.2 18.92 0 8.61-5.482 15.968-13.227 18.927" stroke="#000539" stroke-width="5" mask="url(#b)" transform="rotate(50 681.503 278.538)"/><path d="M241.277 746.324c7.73 2.968 13.2 10.318 13.2 18.918 0 8.61-5.483 15.97-13.228 18.93" stroke="#000539" stroke-width="5" mask="url(#b)" transform="rotate(50 247.863 765.247)"/><path d="M201.02 591.326c7.73 2.968 13.2 10.32 13.2 18.92 0 8.61-5.482 15.968-13.227 18.927" stroke="#000539" stroke-width="5" mask="url(#b)" transform="rotate(50 207.607 610.25)"/><path d="M459.916 201.614c7.73 2.968 13.2 10.32 13.2 18.92 0 8.61-5.482 15.968-13.227 18.927" stroke="#000539" stroke-width="5" mask="url(#b)" transform="rotate(50 466.503 220.538)"/><path d="M18.16 314.307c7.732 2.968 13.202 10.32 13.202 18.92 0 8.61-5.483 15.968-13.228 18.928" stroke="#000539" stroke-width="5" mask="url(#b)" transform="rotate(50 24.748 333.23)"/><path d="M720.277 742.87c7.73 2.968 13.2 10.318 13.2 18.918 0 8.61-5.483 15.97-13.228 18.93" stroke="#000539" stroke-width="5" mask="url(#b)" transform="rotate(50 726.863 761.793)"/><path d="M213.277 135.614c7.73 2.968 13.2 10.32 13.2 18.92 0 8.61-5.483 15.968-13.228 18.927" stroke="#000539" stroke-width="5" mask="url(#b)" transform="rotate(50 219.863 154.538)"/><path d="M600.28 708.81c7.73 2.97 13.2 10.32 13.2 18.92 0 8.61-5.484 15.97-13.23 18.93" stroke="#000539" stroke-width="5" mask="url(#b)" transform="rotate(50 606.865 727.735)"/><path d="M576.916 447.614c7.73 2.968 13.2 10.32 13.2 18.92 0 8.61-5.482 15.968-13.227 18.927" stroke="#000539" stroke-width="5" mask="url(#b)" transform="rotate(30 583.503 466.538)"/><path d="M356.755 359.307c0 3.314-2.686 6-6 6s-6-2.686-6-6 2.686-6 6-6 6 2.686 6 6M243.115 722.773c0 3.314-2.686 6-6 6s-6-2.686-6-6 2.686-6 6-6 6 2.686 6 6M416.115 669.307c0 3.314-2.686 6-6 6s-6-2.686-6-6 2.686-6 6-6 6 2.686 6 6M261.087 801c0 3.314-2.686 6-6 6s-6-2.686-6-6 2.686-6 6-6 6 2.686 6 6M261.087 1c0 3.314-2.686 6-6 6s-6-2.686-6-6 2.686-6 6-6 6 2.686 6 6M656.115 136.307c0 3.314-2.686 6-6 6s-6-2.686-6-6 2.686-6 6-6 6 2.686 6 6M754.57 91c0 3.314-2.687 6-6 6-3.315 0-6-2.686-6-6s2.685-6 6-6c3.313 0 6 2.686 6 6M678 26c0 3.314-2.686 6-6 6s-6-2.686-6-6 2.686-6 6-6 6 2.686 6 6M629.755 259.307c-3.314 0-6-2.686-6-6s2.686-6 6-6 6 2.686 6 6-2.686 6-6 6zM765 210c-3.314 0-6-2.686-6-6s2.686-6 6-6 6 2.686 6 6-2.686 6-6 6zM161.86 585.02c0 3.313-2.687 6-6 6-3.315 0-6-2.687-6-6 0-3.315 2.685-6 6-6 3.313 0 6 2.685 6 6M133 713c0 3.314-2.686 6-6 6s-6-2.686-6-6 2.686-6 6-6 6 2.686 6 6M35 543c0 3.314-2.686 6-6 6s-6-2.686-6-6 2.686-6 6-6 6 2.686 6 6M180.115 482.307c0 3.314-2.686 6-6 6s-6-2.686-6-6 2.686-6 6-6 6 2.686 6 6M125.115 290.307c0 3.314-2.686 6-6 6s-6-2.686-6-6 2.686-6 6-6 6 2.686 6 6M7.86 413c0 3.314-2.687 6-6 6-3.315 0-6-2.686-6-6s2.685-6 6-6c3.313 0 6 2.686 6 6M807.86 413c0 3.314-2.686 6-6 6s-6-2.686-6-6 2.686-6 6-6 6 2.686 6 6M421.755 195.307c0 3.314-2.686 6-6 6s-6-2.686-6-6 2.686-6 6-6 6 2.686 6 6M175.115 129.307c0 3.314-2.686 6-6 6s-6-2.686-6-6 2.686-6 6-6 6 2.686 6 6M562.117 702.504c0 3.314-2.686 6-6 6s-6-2.686-6-6 2.686-6 6-6 6 2.686 6 6M535.755 445.307c0 3.314-2.686 6-6 6s-6-2.686-6-6 2.686-6 6-6 6 2.686 6 6M138.115 221.307c0 3.314-2.686 6-6 6s-6-2.686-6-6 2.686-6 6-6 6 2.686 6 6M324.755 231.307c0 3.314-2.686 6-6 6s-6-2.686-6-6 2.686-6 6-6 6 2.686 6 6M340 131c0 3.314-2.686 6-6 6s-6-2.686-6-6 2.686-6 6-6 6 2.686 6 6M247.366 100c0 3.314-2.686 6-6 6s-6-2.686-6-6 2.686-6 6-6 6 2.686 6 6M481.117 93c0 3.314-2.686 6-6 6s-6-2.686-6-6 2.686-6 6-6 6 2.686 6 6M703.115 733.307c0 3.314-2.686 6-6 6s-6-2.686-6-6 2.686-6 6-6 6 2.686 6 6M772 790c0 3.314-2.686 6-6 6s-6-2.686-6-6 2.686-6 6-6 6 2.686 6 6M78.115 165.307c0 3.314-2.686 6-6 6s-6-2.686-6-6 2.686-6 6-6 6 2.686 6 6M29 29c0 3.314-2.686 6-6 6s-6-2.686-6-6 2.686-6 6-6 6 2.686 6 6M438.755 481.307c0 3.314-2.686 6-6 6s-6-2.686-6-6 2.686-6 6-6 6 2.686 6 6M503.755 317.307c0 3.314-2.686 6-6 6s-6-2.686-6-6 2.686-6 6-6 6 2.686 6 6M676.115 460.307c0 3.314-2.686 6-6 6s-6-2.686-6-6 2.686-6 6-6 6 2.686 6 6M714.115 488.307c0 3.314-2.686 6-6 6s-6-2.686-6-6 2.686-6 6-6 6 2.686 6 6M794 344c0 3.314-2.686 6-6 6s-6-2.686-6-6 2.686-6 6-6 6 2.686 6 6M308.86 543.02c0 3.313-2.687 6-6 6-3.315 0-6-2.687-6-6 0-3.315 2.685-6 6-6 3.313 0 6 2.685 6 6M257.115 251.307c0 3.314-2.686 6-6 6s-6-2.686-6-6 2.686-6 6-6 6 2.686 6 6M617.755 567.307c0 3.314-2.686 6-6 6s-6-2.686-6-6 2.686-6 6-6 6 2.686 6 6M779.755 630.307c0 3.314-2.686 6-6 6s-6-2.686-6-6 2.686-6 6-6 6 2.686 6 6" fill="#FED22A" mask="url(#b)"/><path stroke="#000539" stroke-width="5" mask="url(#b)" d="M425.77 137.802l28.278-13.395v32l15.628-13.396M767 271.395L795.28 258v32l15.627-13.396M-33 271.395L-4.72 258v32l15.627-13.396M440.92 695.698l28.28-13.395v32l15.627-13.396M484.755 366.456l28.28-13.395v32l15.627-13.395M137.115 421.577l28.28-13.395v32l15.627-13.396M275.86 592.168l28.278-13.395v32l15.628-13.396M637.578 611.395L665.858 598v32l15.627-13.396"/><path stroke="#000539" stroke-width="5" mask="url(#b)" transform="rotate(100 558.51 194.705)" d="M536.558 192.1l28.28-13.395v32l15.627-13.396"/><path stroke="#000539" stroke-width="5" mask="url(#b)" transform="rotate(100 801.57 76.398)" d="M779.616 73.793l28.28-13.395v32l15.627-13.396"/><path stroke="#000539" stroke-width="5" mask="url(#b)" transform="rotate(100 1.57 76.398)" d="M-20.384 73.793l28.28-13.395v32l15.627-13.396"/><path stroke="#000539" stroke-width="5" mask="url(#b)" transform="rotate(100 84.615 526.417)" d="M62.662 523.812l28.28-13.395v32l15.627-13.396"/><path stroke="#000539" stroke-width="5" mask="url(#b)" transform="rotate(100 293.872 121.705)" d="M271.918 119.1l28.28-13.395v32l15.627-13.396"/><path stroke="#000539" stroke-width="5" mask="url(#b)" transform="rotate(100 647.903 410.69)" d="M625.95 408.084l28.278-13.395v32l15.628-13.397"/><path stroke="#000539" stroke-width="5" mask="url(#b)" transform="rotate(100 176.112 736.705)" d="M154.158 734.1l28.28-13.395v32l15.627-13.396"/><path stroke="#000539" stroke-width="5" mask="url(#b)" transform="rotate(100 513.004 653.82)" d="M491.05 651.215l28.28-13.395v32l15.628-13.396"/><path stroke="#000539" stroke-width="5" mask="url(#b)" transform="rotate(100 786.793 579.398)" d="M764.84 576.793l28.28-13.395v32l15.627-13.396"/><path stroke="#000539" stroke-width="5" mask="url(#b)" transform="rotate(100 -13.21 579.398)" d="M-35.164 576.793l28.28-13.395v32l15.627-13.396"/><path stroke="#000539" stroke-width="5" mask="url(#b)" transform="rotate(-100 286.21 317.768)" d="M264.255 315.163l28.28-13.395v32l15.627-13.396"/><path stroke="#000539" stroke-width="5" mask="url(#b)" transform="rotate(-100 39.57 231.768)" d="M17.616 229.163l28.28-13.395v32l15.627-13.396"/><path stroke="#000539" stroke-width="5" mask="url(#b)" transform="rotate(-100 624.324 26.398)" d="M602.37 23.793l28.28-13.395v32l15.627-13.396"/><path stroke="#000539" stroke-width="5" mask="url(#b)" transform="rotate(-100 754.57 384.397)" d="M732.616 381.792l28.28-13.395v32L776.522 387"/><path stroke="#000539" stroke-width="5" mask="url(#b)" transform="rotate(-100 400.21 567.768)" d="M378.255 565.163l28.28-13.395v32l15.627-13.396"/><path stroke="#000539" stroke-width="5" mask="url(#b)" transform="rotate(-100 304.324 776)" d="M282.37 773.395L310.65 760v32l15.627-13.396"/><path d="M437.095 60c0 11.596-9.402 20.998-21 20.998-11.596 0-20.998-9.402-20.998-21 0-11.596 9.402-20.998 21-20.998 11.596 0 20.998 9.402 20.998 21z" stroke="#000539" stroke-width="5" mask="url(#b)"/></g></svg>